<svg width="397" height="220" viewBox="0 0 397 220" fill="none" xmlns="http://www.w3.org/2000/svg">
<path d="M85.5 86C85.5 85.7239 85.7239 85.5 86 85.5H311C311.276 85.5 311.5 85.7239 311.5 86V134C311.5 134.276 311.276 134.5 311 134.5H86C85.7239 134.5 85.5 134.276 85.5 134V86Z" fill="#3D97EA" stroke="#3485CE"/>
<g filter="url(#filter0_f)">
<path d="M85 86C85 85.4477 85.4477 85 86 85H311C311.552 85 312 85.4477 312 86V134C312 134.552 311.552 135 311 135H86C85.4477 135 85 134.552 85 134V86Z" fill="#3D97EA"/>
</g>
<path d="M149.36 103L143 114.78C142.547 115.62 142.013 116.247 141.4 116.66C140.8 117.06 140.14 117.26 139.42 117.26C138.887 117.26 138.313 117.133 137.7 116.88L138.12 115.68C138.6 115.867 139.04 115.96 139.44 115.96C140.36 115.96 141.113 115.46 141.7 114.46L142.1 113.78L136.42 103H138L142.88 112.48L147.88 103H149.36ZM155.777 111.52C156.523 111.693 157.097 111.993 157.497 112.42C157.91 112.847 158.117 113.367 158.117 113.98C158.117 114.593 157.903 115.14 157.477 115.62C157.063 116.1 156.497 116.473 155.777 116.74C155.057 116.993 154.263 117.12 153.397 117.12C152.637 117.12 151.89 117.013 151.157 116.8C150.423 116.573 149.783 116.247 149.237 115.82L149.717 114.76C150.197 115.12 150.757 115.4 151.397 115.6C152.037 115.8 152.683 115.9 153.337 115.9C154.31 115.9 155.103 115.72 155.717 115.36C156.343 114.987 156.657 114.487 156.657 113.86C156.657 113.3 156.403 112.867 155.897 112.56C155.39 112.24 154.697 112.08 153.817 112.08H152.017V111.04H153.737C154.523 111.04 155.157 110.893 155.637 110.6C156.117 110.293 156.357 109.887 156.357 109.38C156.357 108.82 156.083 108.38 155.537 108.06C155.003 107.74 154.303 107.58 153.437 107.58C152.303 107.58 151.183 107.867 150.077 108.44L149.677 107.34C150.93 106.687 152.23 106.36 153.577 106.36C154.377 106.36 155.097 106.48 155.737 106.72C156.39 106.947 156.897 107.273 157.257 107.7C157.63 108.127 157.817 108.62 157.817 109.18C157.817 109.713 157.63 110.187 157.257 110.6C156.897 111.013 156.403 111.32 155.777 111.52ZM161.34 106.48H162.76V111.14H169.38V106.48H170.8V117H169.38V112.36H162.76V117H161.34V106.48ZM178.456 106.4C179.83 106.4 180.883 106.747 181.616 107.44C182.35 108.12 182.716 109.133 182.716 110.48V117H181.356V115.36C181.036 115.907 180.563 116.333 179.936 116.64C179.323 116.947 178.59 117.1 177.736 117.1C176.563 117.1 175.63 116.82 174.936 116.26C174.243 115.7 173.896 114.96 173.896 114.04C173.896 113.147 174.216 112.427 174.856 111.88C175.51 111.333 176.543 111.06 177.956 111.06H181.296V110.42C181.296 109.513 181.043 108.827 180.536 108.36C180.03 107.88 179.29 107.64 178.316 107.64C177.65 107.64 177.01 107.753 176.396 107.98C175.783 108.193 175.256 108.493 174.816 108.88L174.176 107.82C174.71 107.367 175.35 107.02 176.096 106.78C176.843 106.527 177.63 106.4 178.456 106.4ZM177.956 115.98C178.756 115.98 179.443 115.8 180.016 115.44C180.59 115.067 181.016 114.533 181.296 113.84V112.12H177.996C176.196 112.12 175.296 112.747 175.296 114C175.296 114.613 175.53 115.1 175.996 115.46C176.463 115.807 177.116 115.98 177.956 115.98ZM193.897 107.74H189.917V117H188.497V107.74H184.517V106.48H193.897V107.74ZM200.47 110.2C201.79 110.213 202.79 110.507 203.47 111.08C204.163 111.653 204.51 112.48 204.51 113.56C204.51 114.68 204.136 115.54 203.39 116.14C202.656 116.74 201.59 117.033 200.19 117.02L195.95 117V106.48H197.37V110.16L200.47 110.2ZM200.11 115.94C201.083 115.953 201.816 115.76 202.31 115.36C202.816 114.947 203.07 114.347 203.07 113.56C203.07 112.787 202.823 112.213 202.33 111.84C201.836 111.467 201.096 111.273 200.11 111.26L197.37 111.22V115.9L200.11 115.94ZM223.414 115.76V119.64H222.074V117H212.454V106.48H213.874V115.76H220.294V106.48H221.714V115.76H223.414ZM235.325 112.18H226.525C226.605 113.273 227.025 114.16 227.785 114.84C228.545 115.507 229.505 115.84 230.665 115.84C231.319 115.84 231.919 115.727 232.465 115.5C233.012 115.26 233.485 114.913 233.885 114.46L234.685 115.38C234.219 115.94 233.632 116.367 232.925 116.66C232.232 116.953 231.465 117.1 230.625 117.1C229.545 117.1 228.585 116.873 227.745 116.42C226.919 115.953 226.272 115.313 225.805 114.5C225.339 113.687 225.105 112.767 225.105 111.74C225.105 110.713 225.325 109.793 225.765 108.98C226.219 108.167 226.832 107.533 227.605 107.08C228.392 106.627 229.272 106.4 230.245 106.4C231.219 106.4 232.092 106.627 232.865 107.08C233.639 107.533 234.245 108.167 234.685 108.98C235.125 109.78 235.345 110.7 235.345 111.74L235.325 112.18ZM230.245 107.62C229.232 107.62 228.379 107.947 227.685 108.6C227.005 109.24 226.619 110.08 226.525 111.12H233.985C233.892 110.08 233.499 109.24 232.805 108.6C232.125 107.947 231.272 107.62 230.245 107.62ZM238.489 106.48H239.909V111.14H246.529V106.48H247.949V117H246.529V112.36H239.909V117H238.489V106.48ZM256.405 110.2C257.725 110.213 258.732 110.507 259.425 111.08C260.118 111.653 260.465 112.48 260.465 113.56C260.465 114.68 260.092 115.54 259.345 116.14C258.598 116.74 257.532 117.033 256.145 117.02L251.985 117V106.48H253.405V110.16L256.405 110.2ZM262.225 106.48H263.645V117H262.225V106.48ZM256.065 115.94C257.038 115.953 257.772 115.76 258.265 115.36C258.772 114.947 259.025 114.347 259.025 113.56C259.025 112.787 258.778 112.213 258.285 111.84C257.792 111.467 257.052 111.273 256.065 111.26L253.405 111.22V115.9L256.065 115.94Z" fill="white"/>
<defs>
<filter id="filter0_f" x="0" y="0" width="397" height="220" filterUnits="userSpaceOnUse" color-interpolation-filters="sRGB">
<feFlood flood-opacity="0" result="BackgroundImageFix"/>
<feBlend mode="normal" in="SourceGraphic" in2="BackgroundImageFix" result="shape"/>
<feGaussianBlur stdDeviation="42.5" result="effect1_foregroundBlur"/>
</filter>
</defs>
</svg>
